<svg width="18" height="19" viewBox="0 0 18 19" fill="none" xmlns="http://www.w3.org/2000/svg">
    <path d="M6 18.416V11.416C6 10.8637 6.44772 10.416 7 10.416H11C11.5523 10.416 12 10.8637 12 11.416V18.416M1 16.416V8.85697C1 7.65724 1.53851 6.52086 2.46705 5.76114L7.73352 1.45221C8.47026 0.849427 9.52974 0.849427 10.2665 1.45221L15.533 5.76114C16.4615 6.52086 17 7.65724 17 8.85697V16.416C17 17.5206 16.1046 18.416 15 18.416H13H5H3C1.89543 18.416 1 17.5206 1 16.416Z" stroke="#111111" stroke-linecap="round"/>
</svg>